<?xml version="1.0" encoding="UTF-8"?>
<svg version="1.1" xmlns="http://www.w3.org/2000/svg" width="512" height="512">
<path d="M0 0 C1.62094985 -0.00967334 1.62094985 -0.00967334 3.27464616 -0.0195421 C4.4612051 -0.01644489 5.64776404 -0.01334769 6.87027931 -0.01015663 C8.1312813 -0.01468774 9.39228328 -0.01921886 10.69149745 -0.02388728 C14.19398893 -0.03613651 17.69638504 -0.03585456 21.19889307 -0.03349853 C24.97540228 -0.03309085 28.75188071 -0.04412481 32.52837563 -0.05361366 C39.92802523 -0.07023499 47.32764298 -0.07572371 54.72730969 -0.07683842 C60.74118407 -0.07778832 66.75504793 -0.08189573 72.76891899 -0.08823967 C89.81419404 -0.1058549 106.85944389 -0.11507806 123.9047281 -0.11357872 C124.82387178 -0.11349881 125.74301546 -0.1134189 126.69001198 -0.11333656 C127.61027607 -0.1132548 128.53054017 -0.11317304 129.47869106 -0.1130888 C144.39593654 -0.11227574 159.31308109 -0.13141767 174.23029737 -0.1596133 C189.54212822 -0.18832676 204.85390981 -0.20215445 220.16576827 -0.20042574 C228.76426939 -0.19976133 237.36266469 -0.20527626 245.96114159 -0.22678185 C253.28157841 -0.24497341 260.60186144 -0.24935769 267.92231105 -0.235763 C271.65778137 -0.22922313 275.39295648 -0.22915249 279.1283989 -0.2464695 C283.1769423 -0.26504509 287.22479923 -0.25267253 291.27335548 -0.23720741 C292.45545298 -0.24749454 293.63755048 -0.25778167 294.85546911 -0.26838052 C301.09170331 -0.21555702 304.98936596 -0.00054105 309.69880104 4.25726891 C311.97694673 7.42170626 311.96591245 10.2880117 312.00519753 14.12396812 C312.02118492 15.30554497 312.03717232 16.48712181 312.05364418 17.70450401 C312.06168823 19.61394295 312.06168823 19.61394295 312.06989479 21.56195641 C312.07892326 22.87382927 312.08795174 24.18570213 312.0972538 25.53732872 C312.11372436 28.31297831 312.12144033 31.08850755 312.12433815 33.8642025 C312.12972015 37.41083676 312.16739803 40.95633103 312.21308231 44.50264359 C312.25008264 47.89740879 312.25137024 51.29199648 312.25739479 54.68695641 C312.27692711 55.95586723 312.29645943 57.22477806 312.31658363 58.53214073 C312.26631815 68.35644002 312.26631815 68.35644002 309.53888893 71.98041344 C303.15547686 77.09789827 296.33787146 76.54350445 288.52132607 76.51796532 C286.66507013 76.52370364 286.66507013 76.52370364 284.77131408 76.52955788 C281.343634 76.53808514 277.91616865 76.53765654 274.48849475 76.53337729 C270.78903379 76.53090978 267.089598 76.53992451 263.39014626 76.54741478 C256.14550658 76.56016288 248.90090396 76.56195535 241.65625495 76.55961452 C235.76781883 76.55783141 229.87939395 76.55958084 223.99095917 76.56383896 C223.15285871 76.56443415 222.31475826 76.56502934 221.45126082 76.56564256 C219.74865914 76.56685431 218.04605746 76.56806845 216.34345578 76.56928494 C200.37730964 76.58016079 184.41118463 76.5779977 168.4450373 76.57190009 C153.83900455 76.56673024 139.23303849 76.57798809 124.62701894 76.59699831 C109.62813427 76.61637017 94.62928117 76.6246339 79.63038391 76.62087506 C71.21019511 76.61896211 62.79006308 76.62145978 54.36988449 76.6355896 C47.20215443 76.64749602 40.03451607 76.64891656 32.86678476 76.63679943 C29.21021009 76.63090568 25.55380323 76.62982492 21.89723969 76.64180183 C17.93249628 76.65463723 13.96800786 76.64420798 10.00325966 76.63149071 C8.84878493 76.63886499 7.69431021 76.64623928 6.5048514 76.65383703 C-0.77841661 76.60458593 -6.24212907 76.20006915 -11.70635033 70.94353294 C-13.58014871 67.78742326 -13.80756583 65.92923321 -13.81877708 62.2770443 C-13.83138573 61.09554298 -13.84399437 59.91404167 -13.85698509 58.69673729 C-13.84888817 57.42893929 -13.84079124 56.16114128 -13.83244896 54.85492516 C-13.83627586 53.54446724 -13.84010277 52.23400932 -13.84404564 50.88384056 C-13.84993127 48.11399981 -13.84141042 45.3446763 -13.82268333 42.57489586 C-13.79991537 39.03620465 -13.81300712 35.49872852 -13.83697319 31.96008205 C-13.85496232 28.57076756 -13.84233959 25.1817741 -13.83244896 21.79242516 C-13.84054588 20.52665138 -13.84864281 19.26087761 -13.85698509 17.95674706 C-13.73844388 6.81912809 -13.73844388 6.81912809 -9.30119896 2.25726891 C-6.13509577 0.28398004 -3.7012382 0.00558358 0 0 Z " fill="#020201" transform="translate(38.301198959350586,333.74273109436035)"/>
<path d="M0 0 C1.88075724 -0.00807831 1.88075724 -0.00807831 3.79950958 -0.01631981 C7.27279712 -0.03077017 10.74584729 -0.02653109 14.2191478 -0.019153 C17.96770016 -0.0144226 21.71620107 -0.02693002 25.46473694 -0.03717041 C32.8056448 -0.05436615 40.14646709 -0.05519684 47.48738986 -0.04995751 C53.45401522 -0.04591609 59.4206153 -0.04735902 65.38723946 -0.05270576 C66.23644136 -0.05345419 67.08564326 -0.05420261 67.96057855 -0.05497371 C69.68572823 -0.05650519 71.41087791 -0.05804353 73.13602758 -0.05958868 C89.31392406 -0.07331647 105.49177218 -0.06787402 121.66966755 -0.05640347 C136.46971756 -0.04647031 151.26964256 -0.05941267 166.06967329 -0.08333766 C181.26744684 -0.10772048 196.46516215 -0.11733857 211.66295487 -0.11068493 C220.19494103 -0.10719095 228.72683104 -0.10943657 237.25880241 -0.12693596 C244.52171231 -0.14164771 251.78445835 -0.14230687 259.047365 -0.12486505 C262.75258909 -0.11634421 266.45752033 -0.11423164 270.16272926 -0.1295166 C274.18017612 -0.14588441 278.19691448 -0.1312362 282.21435547 -0.11352539 C283.38439399 -0.1231304 284.55443251 -0.1327354 285.75992674 -0.14263147 C292.28018992 -0.08336007 296.3825639 0.4615187 301.67066956 4.38768005 C304.01205147 7.49664269 303.93793784 10.43374119 303.97706604 14.25437927 C303.99305344 15.43595612 304.00904083 16.61753296 304.0255127 17.83491516 C304.03355675 19.7443541 304.03355675 19.7443541 304.04176331 21.69236755 C304.05079178 23.00424042 304.05982025 24.31611328 304.06912231 25.66773987 C304.08559287 28.44338945 304.09330885 31.2189187 304.09620667 33.99461365 C304.10158866 37.54124791 304.13926654 41.08674218 304.18495083 44.63305473 C304.22195116 48.02781993 304.22323875 51.42240763 304.22926331 54.81736755 C304.24879562 56.08627838 304.26832794 57.35518921 304.28845215 58.66255188 C304.23820462 68.48334275 304.23820462 68.48334275 301.38575745 72.11082458 C297.32540206 75.51581284 294.70855118 76.63688927 289.40070534 76.64494896 C287.79020567 76.6546223 287.79020567 76.6546223 286.14717066 76.66449106 C284.96839362 76.66139385 283.78961658 76.65829665 282.57511902 76.65510559 C280.6958667 76.66190226 280.6958667 76.66190226 278.77864969 76.66883624 C275.29896117 76.68108506 271.81936867 76.68080357 268.33966351 76.67844748 C264.58769431 76.67803979 260.83575608 76.68907387 257.08380127 76.69856262 C249.73227857 76.71518373 242.38078793 76.72067266 235.02924801 76.72178738 C229.0544659 76.72273729 223.07969438 76.72684476 217.10491562 76.73318863 C200.17031559 76.7508038 183.23574093 76.76002703 166.30113168 76.75852768 C165.38796199 76.75844777 164.4747923 76.75836786 163.53395081 76.75828552 C162.61966794 76.75820376 161.70538507 76.758122 160.76339667 76.75803776 C145.94314879 76.7572247 131.12300252 76.77636659 116.30278404 76.80456226 C101.09039424 76.83327599 85.87805402 76.8471034 70.66563642 76.8453747 C62.12302637 76.84471029 53.58052283 76.85022483 45.03793716 76.8717308 C37.76507718 76.88992272 30.49237199 76.89430636 23.21949913 76.88071196 C19.5083313 76.87417226 15.79746062 76.87410082 12.08632088 76.89141846 C8.06405039 76.90999504 4.04247081 76.89762104 0.02018738 76.88215637 C-1.74128602 76.89758706 -1.74128602 76.89758706 -3.53834474 76.91332948 C-11.12140696 76.84868301 -14.80680495 75.9703519 -20.18006897 70.50534058 C-21.69442721 67.7149428 -21.71025326 65.67474788 -21.71751404 62.50511169 C-21.72697052 61.32030716 -21.736427 60.13550262 -21.74617004 58.91479492 C-21.74009735 57.63869858 -21.73402466 56.36260223 -21.72776794 55.0478363 C-21.73063812 53.73359177 -21.7335083 52.41934723 -21.73646545 51.0652771 C-21.74088373 48.28534857 -21.73447519 45.50570963 -21.72044373 42.72581482 C-21.7033683 39.17036611 -21.71318494 35.61559765 -21.73116112 32.06017399 C-21.74463916 28.66017429 -21.73518784 25.26035531 -21.72776794 21.8603363 C-21.73384064 20.58626419 -21.73991333 19.31219208 -21.74617004 17.99951172 C-21.73671356 16.81155502 -21.72725708 15.62359833 -21.71751404 14.39964294 C-21.71512726 13.35691727 -21.71274048 12.31419159 -21.71028137 11.23986816 C-21.25462977 7.82839443 -20.48124669 6.07563262 -18.32933044 3.38768005 C-12.60796345 -0.56529343 -6.68023048 -0.03424852 0 0 Z " fill="#040502" transform="translate(46.32933044433594,197.61231994628906)"/>
<path d="M0 0 C1.0686907 -0.00583219 2.1373814 -0.01166439 3.23845667 -0.01767331 C4.40653897 -0.01389399 5.57462128 -0.01011467 6.77810001 -0.00622082 C8.02362221 -0.01004636 9.26914441 -0.01387191 10.55240971 -0.01781338 C14.00708219 -0.02634993 17.46154196 -0.0259085 20.91620839 -0.02163279 C24.64293454 -0.0191678 28.36963559 -0.02817688 32.09635258 -0.03567028 C39.39627334 -0.04842545 46.69615733 -0.05020997 53.99608736 -0.04787002 C59.92889237 -0.04608768 65.8616862 -0.04783469 71.79448986 -0.05209446 C72.63856525 -0.05268965 73.48264064 -0.05328484 74.35229408 -0.05389806 C76.06697702 -0.0551098 77.78165996 -0.05632393 79.4963429 -0.05754044 C95.57976995 -0.06841905 111.66317604 -0.06625192 127.74660427 -0.06015559 C142.4633069 -0.05498567 157.17994336 -0.0662433 171.8966329 -0.08525381 C187.00509224 -0.10462091 202.11352024 -0.11289023 217.22199208 -0.10913056 C225.70532093 -0.10721686 234.18859345 -0.10972252 242.67191219 -0.1238451 C249.89349364 -0.13574547 257.11498407 -0.1371789 264.33656674 -0.12505493 C268.02136384 -0.11915687 271.70599434 -0.11809227 275.39078045 -0.13005733 C279.38444024 -0.14287473 283.37770177 -0.13247386 287.37136173 -0.11974621 C289.12013911 -0.13080764 289.12013911 -0.13080764 290.90424532 -0.14209253 C297.95289197 -0.09467682 302.76074693 0.41493703 307.98186588 5.56721973 C309.93651498 8.73842187 310.13933982 10.54733764 310.13993168 14.25056934 C310.15400311 16.02766285 310.15400311 16.02766285 310.1683588 17.84065723 C310.15150784 19.74705982 310.15150784 19.74705982 310.13431644 21.69197559 C310.13577168 23.00480518 310.13722691 24.31763477 310.13872623 25.67024708 C310.14010797 28.44429631 310.12759133 31.2178271 310.10477543 33.99178028 C310.07639053 37.53938384 310.07913068 41.08612656 310.09186554 44.63379383 C310.10051104 48.02827719 310.08536984 51.42250674 310.07181644 54.81697559 C310.07475208 56.08791065 310.07768772 57.35884571 310.08071232 58.66829395 C310.06802814 59.85302296 310.05534397 61.03775196 310.04227543 62.25838184 C310.03687244 63.29809132 310.03146946 64.33780079 310.02590275 65.40901661 C309.56219286 68.81251249 308.78475271 70.57066235 306.63822269 73.25447559 C300.91546136 77.21040408 294.98432816 76.67355099 288.30216312 76.63542652 C287.0476194 76.64010649 285.79307567 76.64478647 284.50051546 76.64960825 C281.0252899 76.66212074 277.5503118 76.65594687 274.0750854 76.6466496 C270.32451283 76.63986043 266.57398274 76.65033968 262.82341862 76.65858936 C255.47882985 76.67193031 248.13433305 76.66904736 240.78974068 76.66035144 C234.8207242 76.65357672 228.85173349 76.65265726 222.88271427 76.65592289 C222.03322365 76.65638259 221.18373302 76.65684229 220.30850026 76.65731592 C218.58278484 76.65827509 216.85706944 76.65924773 215.13135403 76.66023369 C198.94871564 76.66878864 182.76612822 76.6589518 166.58349818 76.64283259 C152.69758004 76.62942931 138.81173713 76.63175738 124.92582035 76.64558887 C108.80115059 76.66164283 92.67652552 76.66796466 76.55184889 76.65875208 C74.8324763 76.65779643 73.11310371 76.65685332 71.39373112 76.65592289 C70.12477964 76.65522865 70.12477964 76.65522865 68.83019277 76.65452038 C62.86823753 76.65192994 56.90631063 76.65630266 50.94435978 76.66336155 C43.67887902 76.67177469 36.41349549 76.66950034 29.14802587 76.65351932 C25.44094864 76.64563407 21.73403355 76.64254924 18.02695751 76.65246677 C14.00925788 76.66305277 9.99196778 76.65041417 5.97428226 76.63542652 C4.8013309 76.64211869 3.62837955 76.64881085 2.4198842 76.65570581 C-3.21554973 76.6147951 -7.56011774 76.57389597 -12.36177731 73.25447559 C-15.25420146 69.63457668 -15.74457911 66.84501542 -15.78169918 62.27425098 C-15.79761105 61.09274967 -15.81352291 59.91124836 -15.82991695 58.69394398 C-15.83011837 57.42614597 -15.83031979 56.15834797 -15.83052731 54.85213184 C-15.83814083 53.54167393 -15.84575436 52.23121601 -15.85359859 50.88104725 C-15.86701982 48.11131182 -15.86862291 45.34186132 -15.86275387 42.57210255 C-15.85685838 39.0332854 -15.88745069 35.49584055 -15.92787075 31.95728874 C-15.96002814 28.56802703 -15.95563142 25.17904552 -15.95552731 21.78963184 C-15.97192257 20.52385807 -15.98831783 19.2580843 -16.00520992 17.95395374 C-15.92828643 8.16098535 -15.92828643 8.16098535 -13.13716793 4.53352833 C-8.91306318 1.06484273 -5.42448303 0.00510309 0 0 Z " fill="#030402" transform="translate(40.36177730560303,61.745524406433105)"/>
<path d="M0 0 C15.35124512 -0.63877664 30.11007169 4.482645 42.22265625 13.87890625 C53.50917597 24.43545206 61.07170264 38.48214392 61.80859375 53.98828125 C62.1407266 72.26836242 57.71434437 87.37074538 44.88671875 100.90625 C31.52808442 113.55155919 16.21137492 117.89151536 -1.73046875 117.5 C-17.33361642 116.75566932 -30.36501686 109.45285709 -40.98046875 98.28515625 C-51.87915071 85.59468495 -56.6439482 69.79299687 -55.52734375 53.19140625 C-53.49290906 37.2892195 -46.67850912 23.62442088 -34.52734375 13.19140625 C-24.11849894 5.38157189 -12.95200118 0.9809089 0 0 Z " fill="#F1C44A" transform="translate(425.52734375,312.80859375)"/>
<path d="M0 0 C13.34338024 9.89780343 23.83817916 22.92113116 26.375 39.76171875 C27.90318866 58.09593984 24.99616239 74.12573501 12.96875 88.671875 C0.78804773 101.69447875 -13.87673679 108.15660167 -31.66796875 108.7578125 C-48.4070071 108.77433672 -62.81964153 102.33318794 -74.75390625 90.68359375 C-76.49314476 88.77531478 -78.07899266 86.82861806 -79.625 84.76171875 C-80.07230469 84.18421875 -80.51960938 83.60671875 -80.98046875 83.01171875 C-89.48353361 70.87195846 -92.38780066 54.30666485 -89.9765625 39.8828125 C-86.11924308 21.73033325 -77.1034496 8.95951063 -61.625 -1.23828125 C-42.84321077 -11.53958132 -18.22333107 -11.89911585 0 0 Z " fill="#B0E06C" transform="translate(460.625,50.23828125)"/>
<path d="M0 0 C12.15070522 11.50421476 18.92239843 25.18744348 19.52124023 41.92626953 C19.72280597 59.64739555 14.52651625 73.26489048 2.3359375 86.26953125 C-10.14721601 98.58197497 -24.90095617 103.05459505 -42.10644531 102.94287109 C-56.39435601 102.5478254 -69.70304531 97.04552869 -80.30078125 87.30078125 C-91.8576716 74.84015303 -98.80045826 58.90972513 -98.30078125 41.76171875 C-96.49323996 25.11225514 -90.12594944 10.37538668 -77.30859375 -0.7734375 C-53.98380098 -18.50028001 -22.85985534 -19.19622289 0 0 Z " fill="#B0E06C" transform="translate(467.94921875,191.4765625)"/>
<path d="M0 0 C13.34338024 9.89780343 23.83817916 22.92113116 26.375 39.76171875 C27.90318866 58.09593984 24.99616239 74.12573501 12.96875 88.671875 C0.78804773 101.69447875 -13.87673679 108.15660167 -31.66796875 108.7578125 C-48.4070071 108.77433672 -62.81964153 102.33318794 -74.75390625 90.68359375 C-76.49314476 88.77531478 -78.07899266 86.82861806 -79.625 84.76171875 C-80.07230469 84.18421875 -80.51960938 83.60671875 -80.98046875 83.01171875 C-89.48353361 70.87195846 -92.38780066 54.30666485 -89.9765625 39.8828125 C-86.11924308 21.73033325 -77.1034496 8.95951063 -61.625 -1.23828125 C-42.84321077 -11.53958132 -18.22333107 -11.89911585 0 0 Z M-70.625 20.76171875 C-72.95171544 23.96708833 -74.87550587 27.21076532 -76.625 30.76171875 C-76.96402344 31.42042969 -77.30304688 32.07914063 -77.65234375 32.7578125 C-82.0774442 43.21899468 -80.68860221 57.40857134 -76.9453125 67.80078125 C-70.8301817 81.51459529 -61.5437347 90.19422487 -47.625 95.76171875 C-34.53309918 99.96405729 -21.13412988 98.31424835 -8.8671875 92.44140625 C3.3627173 85.5971476 11.17451236 75.02641657 15.375 61.76171875 C18.46719056 49.39295651 16.26045399 36.54841139 10.1875 25.51171875 C2.66450049 13.45603334 -7.54325551 6.2917622 -21.1953125 2.453125 C-40.65841825 -1.47053071 -58.05589946 5.83315548 -70.625 20.76171875 Z " fill="#010201" transform="translate(460.625,50.23828125)"/>
<path d="M0 0 C15.35124512 -0.63877664 30.11007169 4.482645 42.22265625 13.87890625 C53.50917597 24.43545206 61.07170264 38.48214392 61.80859375 53.98828125 C62.1407266 72.26836242 57.71434437 87.37074538 44.88671875 100.90625 C31.52808442 113.55155919 16.21137492 117.89151536 -1.73046875 117.5 C-17.33361642 116.75566932 -30.36501686 109.45285709 -40.98046875 98.28515625 C-51.87915071 85.59468495 -56.6439482 69.79299687 -55.52734375 53.19140625 C-53.49290906 37.2892195 -46.67850912 23.62442088 -34.52734375 13.19140625 C-24.11849894 5.38157189 -12.95200118 0.9809089 0 0 Z M-32.83984375 26.44140625 C-42.57885862 38.16022086 -45.65029556 50.18165437 -44.52734375 65.19140625 C-42.70271907 78.22443965 -36.65357722 88.82625686 -26.52734375 97.19140625 C-15.23109435 105.19510544 -3.36427132 108.48305078 10.47265625 107.19140625 C24.15021414 104.079064 35.0793794 97.61975196 43.47265625 86.19140625 C45.45337648 82.96241963 47.03671157 79.69424101 48.47265625 76.19140625 C48.79234375 75.423125 49.11203125 74.65484375 49.44140625 73.86328125 C53.55002148 62.3743757 52.43354269 50.18287027 47.47265625 39.19140625 C41.58747153 26.88769195 32.25060279 18.02807144 19.47265625 13.19140625 C0.39770852 7.52944633 -18.95685929 11.68743607 -32.83984375 26.44140625 Z " fill="#020100" transform="translate(425.52734375,312.80859375)"/>
<path d="M0 0 C12.15070522 11.50421476 18.92239843 25.18744348 19.52124023 41.92626953 C19.72280597 59.64739555 14.52651625 73.26489048 2.3359375 86.26953125 C-10.14721601 98.58197497 -24.90095617 103.05459505 -42.10644531 102.94287109 C-56.39435601 102.5478254 -69.70304531 97.04552869 -80.30078125 87.30078125 C-91.8576716 74.84015303 -98.80045826 58.90972513 -98.30078125 41.76171875 C-96.49323996 25.11225514 -90.12594944 10.37538668 -77.30859375 -0.7734375 C-53.98380098 -18.50028001 -22.85985534 -19.19622289 0 0 Z M-68.94921875 6.5234375 C-69.5628125 6.96300781 -70.17640625 7.40257812 -70.80859375 7.85546875 C-78.95322622 14.10809589 -84.95793402 24.50844665 -86.94921875 34.5234375 C-88.4360349 48.3568963 -87.22885114 60.44053208 -78.94921875 72.0234375 C-70.14645678 82.69817923 -59.89711153 90.56812543 -45.94921875 92.5234375 C-31.38023047 93.69379944 -17.96136574 89.8581695 -6.76171875 80.3984375 C3.68014819 70.46473049 9.0945021 58.37052752 9.55078125 43.9609375 C9.11665416 29.89521994 3.02018914 17.39598382 -7.12109375 7.703125 C-25.54202548 -6.49422293 -50.19360463 -8.13400109 -68.94921875 6.5234375 Z " fill="#010201" transform="translate(467.94921875,191.4765625)"/>
<path d="M0 0 C8.02050392 4.95934492 14.46387549 11.29424925 17.34375 20.44921875 C17.4609375 23.24609375 17.4609375 23.24609375 17.34375 25.44921875 C18.271875 25.22234375 19.2 24.99546875 20.15625 24.76171875 C23.34375 24.44921875 23.34375 24.44921875 25.21875 25.57421875 C26.77032034 28.16016932 26.77431338 29.45232713 26.34375 32.44921875 C24.66604164 34.62641996 23.11380785 36.37954824 21.15625 38.26171875 C20.67349609 38.76380859 20.19074219 39.26589844 19.69335938 39.78320312 C17.53086921 41.91666658 15.80694305 43.32907805 12.84375 44.09765625 C9.19523788 43.15132342 7.06799903 40.90007322 4.53125 38.26171875 C4.02916016 37.77896484 3.52707031 37.29621094 3.00976562 36.79882812 C0.72197448 34.47991057 -0.58075751 32.96952484 -1.0546875 29.703125 C-0.65625 27.44921875 -0.65625 27.44921875 0.53125 25.57421875 C2.34375 24.44921875 2.34375 24.44921875 4.95703125 24.87890625 C5.74464844 25.06710937 6.53226562 25.2553125 7.34375 25.44921875 C4.39737728 18.2816005 1.30324619 13.19876839 -5.65625 9.44921875 C-11.6473515 7.47277289 -18.56540023 7.33224959 -24.48828125 9.47265625 C-30.58055699 12.77910875 -34.61453871 16.7392731 -36.65625 23.44921875 C-37.78371868 31.06725034 -36.95841586 37.96267147 -32.65625 44.44921875 C-28.66652618 49.03682625 -23.28621007 52.02182023 -17.234375 52.734375 C-13.03663419 52.88065991 -9.66840805 52.69489042 -5.84375 50.88671875 C-2.4229559 49.34400768 -1.13318951 49.22206363 2.34375 50.44921875 C3.34375 51.44921875 3.34375 51.44921875 3.78125 54.26171875 C3.34375 57.44921875 3.34375 57.44921875 0.78125 59.69921875 C-7.59349424 63.96272491 -15.72353837 64.67560626 -24.78125 62.32421875 C-33.47700958 59.40745927 -40.30351736 53.15511157 -44.9140625 45.30859375 C-48.65644057 37.40511 -49.15334884 28.21893674 -46.9609375 19.76953125 C-46.02708758 17.50161003 -44.96564099 15.52140137 -43.65625 13.44921875 C-43.23214844 12.753125 -42.80804688 12.05703125 -42.37109375 11.33984375 C-33.16053311 -2.30923218 -14.99562674 -7.1229227 0 0 Z " fill="#060401" transform="translate(443.65625,341.55078125)"/>
<path d="M0 0 C9.9 0 19.8 0 30 0 C30 18.15 30 36.3 30 55 C20.1 55 10.2 55 0 55 C0 36.85 0 18.7 0 0 Z " fill="#D3DFEA" transform="translate(271,344)"/>
<path d="M0 0 C9.9 0 19.8 0 30 0 C30 18.15 30 36.3 30 55 C20.1 55 10.2 55 0 55 C0 36.85 0 18.7 0 0 Z " fill="#EDC249" transform="translate(192,344)"/>
<path d="M0 0 C9.9 0 19.8 0 30 0 C30 18.15 30 36.3 30 55 C20.1 55 10.2 55 0 55 C0 36.85 0 18.7 0 0 Z " fill="#EDC249" transform="translate(153,344)"/>
<path d="M0 0 C9.9 0 19.8 0 30 0 C30 18.15 30 36.3 30 55 C20.1 55 10.2 55 0 55 C0 36.85 0 18.7 0 0 Z " fill="#EDC249" transform="translate(74,344)"/>
<path d="M0 0 C9.9 0 19.8 0 30 0 C30 18.15 30 36.3 30 55 C20.1 55 10.2 55 0 55 C0 36.85 0 18.7 0 0 Z " fill="#ACDA69" transform="translate(271,208)"/>
<path d="M0 0 C9.9 0 19.8 0 30 0 C30 18.15 30 36.3 30 55 C20.1 55 10.2 55 0 55 C0 36.85 0 18.7 0 0 Z " fill="#ACDA69" transform="translate(271,73)"/>
<path d="M0 0 C9.9 0 19.8 0 30 0 C30 18.15 30 36.3 30 55 C20.1 55 10.2 55 0 55 C0 36.85 0 18.7 0 0 Z " fill="#ACDA69" transform="translate(153,73)"/>
<path d="M0 0 C1.20970459 0.00523682 2.41940918 0.01047363 3.66577148 0.01586914 C4.84083252 0.0183667 6.01589355 0.02086426 7.2265625 0.0234375 C8.7314624 0.0325415 10.2363623 0.04164551 11.78686523 0.05102539 C16.55124023 0.07165039 21.31561523 0.09227539 26.22436523 0.11352539 C26.22436523 18.26352539 26.22436523 36.41352539 26.22436523 55.11352539 C21.45999023 55.13415039 16.69561523 55.15477539 11.78686523 55.17602539 C10.28196533 55.18512939 8.77706543 55.1942334 7.2265625 55.20361328 C6.05150146 55.20611084 4.87644043 55.2086084 3.66577148 55.21118164 C2.45606689 55.21641846 1.2463623 55.22165527 0 55.22705078 C-2.77563477 55.11352539 -2.77563477 55.11352539 -3.77563477 54.11352539 C-3.87431986 52.46161143 -3.90362313 50.80549322 -3.9050293 49.15063477 C-3.90818146 48.09283813 -3.91133362 47.0350415 -3.9145813 45.94519043 C-3.91154495 44.21867249 -3.91154495 44.21867249 -3.90844727 42.45727539 C-3.90940399 41.28467163 -3.91036072 40.11206787 -3.91134644 38.90393066 C-3.91202847 36.41894477 -3.9101726 33.93395711 -3.90600586 31.44897461 C-3.90065796 27.63008652 -3.90595012 23.81131605 -3.91235352 19.99243164 C-3.91169274 17.5848793 -3.91041158 15.17732702 -3.90844727 12.76977539 C-3.9104715 11.61876343 -3.91249573 10.46775146 -3.9145813 9.28186035 C-3.91142914 8.22406372 -3.90827698 7.16626709 -3.9050293 6.07641602 C-3.9042337 5.14011353 -3.90343811 4.20381104 -3.90261841 3.23913574 C-3.70811543 -0.01669734 -3.30210658 0.13505845 0 0 Z " fill="#EDC249" transform="translate(38.775634765625,343.886474609375)"/>
<path d="M0 0 C9.57 0 19.14 0 29 0 C29 18.15 29 36.3 29 55 C19.43 55 9.86 55 0 55 C0 36.85 0 18.7 0 0 Z " fill="#F3C64B" transform="translate(114,344)"/>
<path d="M0 0 C9.57 0 19.14 0 29 0 C29 18.15 29 36.3 29 55 C19.43 55 9.86 55 0 55 C0 36.85 0 18.7 0 0 Z " fill="#AFDE6B" transform="translate(193,73)"/>
<path d="M0 0 C9.57 0 19.14 0 29 0 C29 17.82 29 35.64 29 54 C19.43 54 9.86 54 0 54 C0 36.18 0 18.36 0 0 Z " fill="#DAE6F1" transform="translate(232,345)"/>
<path d="M0 0 C9.57 0 19.14 0 29 0 C29 17.82 29 35.64 29 54 C19.43 54 9.86 54 0 54 C0 36.18 0 18.36 0 0 Z " fill="#B2E26D" transform="translate(232,209)"/>
<path d="M0 0 C9.57 0 19.14 0 29 0 C29 17.82 29 35.64 29 54 C19.43 54 9.86 54 0 54 C0 36.18 0 18.36 0 0 Z " fill="#B1E16C" transform="translate(193,209)"/>
<path d="M0 0 C9.57 0 19.14 0 29 0 C29 17.82 29 35.64 29 54 C19.43 54 9.86 54 0 54 C0 36.18 0 18.36 0 0 Z " fill="#B0E06C" transform="translate(153,209)"/>
<path d="M0 0 C9.57 0 19.14 0 29 0 C29 17.82 29 35.64 29 54 C19.43 54 9.86 54 0 54 C0 36.18 0 18.36 0 0 Z " fill="#B2E26D" transform="translate(114,209)"/>
<path d="M0 0 C9.57 0 19.14 0 29 0 C29 17.82 29 35.64 29 54 C19.43 54 9.86 54 0 54 C0 36.18 0 18.36 0 0 Z " fill="#B1E06C" transform="translate(75,209)"/>
<path d="M0 0 C9.57 0 19.14 0 29 0 C29 17.82 29 35.64 29 54 C19.43 54 9.86 54 0 54 C0 36.18 0 18.36 0 0 Z " fill="#B2E26D" transform="translate(232,73)"/>
<path d="M0 0 C9.57 0 19.14 0 29 0 C29 17.82 29 35.64 29 54 C19.43 54 9.86 54 0 54 C0 36.18 0 18.36 0 0 Z " fill="#B2E26D" transform="translate(114,73)"/>
<path d="M0 0 C9.57 0 19.14 0 29 0 C29 17.82 29 35.64 29 54 C19.43 54 9.86 54 0 54 C0 36.18 0 18.36 0 0 Z " fill="#B1E06C" transform="translate(75,73)"/>
<path d="M0 0 C9.57 0 19.14 0 29 0 C29.02290222 7.52974139 29.04283138 15.05936291 29.05493164 22.58911133 C29.0599737 25.15291757 29.06680714 27.71672091 29.07543945 30.28051758 C29.08751064 33.95655021 29.09322942 37.63254498 29.09765625 41.30859375 C29.10281754 42.46274277 29.10797882 43.61689178 29.11329651 44.80601501 C29.11340981 46.3975515 29.11340981 46.3975515 29.11352539 48.02124023 C29.115746 48.96055893 29.11796661 49.89987762 29.12025452 50.86766052 C29 53 29 53 28 54 C25.92737924 54.08767112 23.85179706 54.10695873 21.77734375 54.09765625 C20.64288818 54.09515869 19.50843262 54.09266113 18.33959961 54.09008789 C16.1605603 54.07643188 16.1605603 54.07643188 13.9375 54.0625 C7.0384375 54.0315625 7.0384375 54.0315625 0 54 C0 36.18 0 18.36 0 0 Z " fill="#D9E5F0" transform="translate(311,345)"/>
<path d="M0 0 C9.57 0 19.14 0 29 0 C29.02290222 7.52974139 29.04283138 15.05936291 29.05493164 22.58911133 C29.0599737 25.15291757 29.06680714 27.71672091 29.07543945 30.28051758 C29.08751064 33.95655021 29.09322942 37.63254498 29.09765625 41.30859375 C29.10281754 42.46274277 29.10797882 43.61689178 29.11329651 44.80601501 C29.11340981 46.3975515 29.11340981 46.3975515 29.11352539 48.02124023 C29.115746 48.96055893 29.11796661 49.89987762 29.12025452 50.86766052 C29 53 29 53 28 54 C25.92737924 54.08767112 23.85179706 54.10695873 21.77734375 54.09765625 C20.64288818 54.09515869 19.50843262 54.09266113 18.33959961 54.09008789 C16.1605603 54.07643188 16.1605603 54.07643188 13.9375 54.0625 C7.0384375 54.0315625 7.0384375 54.0315625 0 54 C0 36.18 0 18.36 0 0 Z " fill="#B1E16C" transform="translate(311,209)"/>
<path d="M0 0 C4.599375 -0.020625 9.19875 -0.04125 13.9375 -0.0625 C15.39019287 -0.071604 16.84288574 -0.08070801 18.33959961 -0.09008789 C19.47405518 -0.09258545 20.60851074 -0.09508301 21.77734375 -0.09765625 C23.52905884 -0.10551147 23.52905884 -0.10551147 25.31616211 -0.11352539 C28 0 28 0 29 1 C29.09346915 2.65738443 29.11744977 4.31874644 29.11352539 5.97875977 C29.11344986 7.03978409 29.11337433 8.10080841 29.11329651 9.19398499 C29.10813522 10.348134 29.10297394 11.50228302 29.09765625 12.69140625 C29.0962413 13.86638168 29.09482635 15.04135712 29.09336853 16.25193787 C29.08774992 20.02215064 29.07519426 23.79230504 29.0625 27.5625 C29.0574874 30.11132727 29.05292408 32.66015547 29.04882812 35.20898438 C29.03862331 41.47269709 29.01905152 47.73628284 29 54 C19.43 54 9.86 54 0 54 C0 36.18 0 18.36 0 0 Z " fill="#B1E16C" transform="translate(311,73)"/>
<path d="M0 0 C1.16781006 0.00523682 2.33562012 0.01047363 3.53881836 0.01586914 C4.67327393 0.0183667 5.80772949 0.02086426 6.9765625 0.0234375 C9.15560181 0.03709351 9.15560181 0.03709351 11.37866211 0.05102539 C15.97803711 0.07165039 20.57741211 0.09227539 25.31616211 0.11352539 C25.31616211 17.93352539 25.31616211 35.75352539 25.31616211 54.11352539 C15.74616211 54.11352539 6.17616211 54.11352539 -3.68383789 54.11352539 C-3.70674011 46.583784 -3.72666927 39.05416248 -3.73876953 31.52441406 C-3.74381159 28.96060782 -3.75064503 26.39680448 -3.75927734 23.83300781 C-3.77134853 20.15697518 -3.77706731 16.48098041 -3.78149414 12.80493164 C-3.78665543 11.65078262 -3.79181671 10.49663361 -3.7971344 9.30751038 C-3.79720993 8.24648605 -3.79728546 7.18546173 -3.79736328 6.09228516 C-3.79958389 5.15296646 -3.8018045 4.21364777 -3.80409241 3.24586487 C-3.622926 0.03344272 -3.24721602 0.13735609 0 0 Z " fill="#B1E06C" transform="translate(38.683837890625,72.886474609375)"/>
<path d="M0 0 C1.16781006 0.00523682 2.33562012 0.01047363 3.53881836 0.01586914 C4.67327393 0.0183667 5.80772949 0.02086426 6.9765625 0.0234375 C9.15560181 0.03709351 9.15560181 0.03709351 11.37866211 0.05102539 C15.97803711 0.07165039 20.57741211 0.09227539 25.31616211 0.11352539 C25.31616211 17.93352539 25.31616211 35.75352539 25.31616211 54.11352539 C20.71678711 54.13415039 16.11741211 54.15477539 11.37866211 54.17602539 C9.92596924 54.18512939 8.47327637 54.1942334 6.9765625 54.20361328 C5.84210693 54.20611084 4.70765137 54.2086084 3.53881836 54.21118164 C1.78710327 54.21903687 1.78710327 54.21903687 0 54.22705078 C-2.68383789 54.11352539 -2.68383789 54.11352539 -3.68383789 53.11352539 C-3.78245387 51.49225116 -3.81182556 49.86670171 -3.81323242 48.24243164 C-3.81638458 47.20465576 -3.81953674 46.16687988 -3.82278442 45.09765625 C-3.82076019 43.96851807 -3.81873596 42.83937988 -3.81665039 41.67602539 C-3.81808548 39.95041382 -3.81808548 39.95041382 -3.81954956 38.18994141 C-3.82023158 35.75203395 -3.81837579 33.31412469 -3.81420898 30.8762207 C-3.80886107 27.12976021 -3.81415328 23.38341962 -3.82055664 19.63696289 C-3.81989586 17.27498346 -3.81861471 14.9130041 -3.81665039 12.55102539 C-3.81867462 11.42188721 -3.82069885 10.29274902 -3.82278442 9.12939453 C-3.81963226 8.09161865 -3.8164801 7.05384277 -3.81323242 5.98461914 C-3.81243683 5.06608154 -3.81164124 4.14754395 -3.81082153 3.20117188 C-3.61746312 0.02230571 -3.21539278 0.13600997 0 0 Z " fill="#B1E06C" transform="translate(38.683837890625,208.886474609375)"/>
<path d="M0 0 C1.9375 1 1.9375 1 3 3 C3.23595284 5.71882023 3.13477523 8.25957022 3 11 C4.258125 10.938125 5.51625 10.87625 6.8125 10.8125 C9.37705844 10.83065617 10.71463773 10.8484013 13 12.0625 C14.58433618 15.13215135 14.36248449 17.61681143 14 21 C13 22.9375 13 22.9375 11 24 C8.28117977 24.23595284 5.74042978 24.13477523 3 24 C3.061875 25.258125 3.12375 26.51625 3.1875 27.8125 C3.16934383 30.37705844 3.1515987 31.71463773 1.9375 34 C-1.13215135 35.58433618 -3.61681143 35.36248449 -7 35 C-8.9375 34 -8.9375 34 -10 32 C-10.23595284 29.28117977 -10.13477523 26.74042978 -10 24 C-11.258125 24.061875 -12.51625 24.12375 -13.8125 24.1875 C-16.37705844 24.16934383 -17.71463773 24.1515987 -20 22.9375 C-21.58433618 19.86784865 -21.36248449 17.38318857 -21 14 C-20 12.0625 -20 12.0625 -18 11 C-15.28117977 10.76404716 -12.74042978 10.86522477 -10 11 C-10.061875 9.741875 -10.12375 8.48375 -10.1875 7.1875 C-10.16934383 4.62294156 -10.1515987 3.28536227 -8.9375 1 C-5.86784865 -0.58433618 -3.38318857 -0.36248449 0 0 Z " fill="#6FD6F9" transform="translate(134,435)"/>
<path d="M0 0 C0.66 0.66 1.32 1.32 2 2 C1.85355506 7.75931132 0.33949264 10.4263069 -3.6640625 14.4609375 C-4.13435883 14.93697418 -4.60465515 15.41301086 -5.08920288 15.9034729 C-6.08221999 16.90055193 -7.08277107 17.89017859 -8.09033203 18.87255859 C-9.62132022 20.37139749 -11.11761858 21.89959336 -12.61328125 23.43359375 C-13.58662386 24.40297114 -14.56182628 25.37048542 -15.5390625 26.3359375 C-16.85704834 27.64377197 -16.85704834 27.64377197 -18.20166016 28.97802734 C-21.61088853 31.44140454 -23.80813356 31.99162165 -28 32 C-30.26342773 30.72412109 -30.26342773 30.72412109 -32.18359375 28.7734375 C-32.88291016 28.07089844 -33.58222656 27.36835938 -34.30273438 26.64453125 C-35.00720703 25.89558594 -35.71167969 25.14664063 -36.4375 24.375 C-37.16904297 23.64925781 -37.90058594 22.92351562 -38.65429688 22.17578125 C-43.9201806 16.75747699 -43.9201806 16.75747699 -44.27758789 13.36572266 C-44 11 -44 11 -42.8125 9.125 C-41 8 -41 8 -38.71875 8.11328125 C-35.06810567 9.3039368 -33.31702716 11.2927314 -30.6875 14.0625 C-29.80449219 14.98160156 -28.92148437 15.90070313 -28.01171875 16.84765625 C-27.01591797 17.91306641 -27.01591797 17.91306641 -26 19 C-20.69377637 14.6585443 -15.87564628 9.94965334 -11.08886719 5.05175781 C-7.28012274 1.17916594 -5.50163276 -0.41262246 0 0 Z " fill="#070804" transform="translate(450,223)"/>
<path d="M0 0 C2 2 2 2 2.43994141 4.76025391 C1.86657603 8.98253948 -0.10692937 10.97416297 -3.0390625 13.8359375 C-3.55753754 14.36015289 -4.07601257 14.88436829 -4.61019897 15.42446899 C-5.70753896 16.52588165 -6.81245194 17.61979447 -7.92431641 18.70654297 C-9.61991917 20.37001545 -11.28112858 22.06307022 -12.94140625 23.76171875 C-14.01370656 24.83005403 -15.08786672 25.89652647 -16.1640625 26.9609375 C-16.90506699 27.72016006 -16.90506699 27.72016006 -17.66104126 28.49472046 C-20.12245996 30.85916338 -21.71415456 31.95194762 -25.109375 32.52270508 C-28.47994682 31.91321232 -29.6832008 31.07700298 -32.0859375 28.67578125 C-32.78847656 27.97646484 -33.49101562 27.27714844 -34.21484375 26.55664062 C-34.92769531 25.81607422 -35.64054687 25.07550781 -36.375 24.3125 C-37.11105469 23.59126953 -37.84710938 22.87003906 -38.60546875 22.12695312 C-43.90649185 16.74233319 -43.90649185 16.74233319 -44.33056641 13.37573242 C-44 11 -44 11 -42 9 C-39.2109375 8.5625 -39.2109375 8.5625 -36 9 C-33.2265625 11.1875 -33.2265625 11.1875 -30.625 14 C-29.75101562 14.928125 -28.87703125 15.85625 -27.9765625 16.8125 C-27.32429688 17.534375 -26.67203125 18.25625 -26 19 C-22.64046884 17.55332089 -20.56193423 15.74153294 -18.06640625 13.0859375 C-17.33486328 12.32539062 -16.60332031 11.56484375 -15.84960938 10.78125 C-14.32281212 9.17491847 -12.80197411 7.56290197 -11.28710938 5.9453125 C-10.55427734 5.18734375 -9.82144531 4.429375 -9.06640625 3.6484375 C-8.40584229 2.94895996 -7.74527832 2.24948242 -7.06469727 1.52880859 C-4.49429186 -0.37445245 -3.1308739 -0.46619747 0 0 Z " fill="#030402" transform="translate(450,87)"/>
<path d="M0 0 C1.99375759 1.99375759 2.64570975 3.27941316 3.75 5.8125 C7.04418414 12.52242489 12.26200071 15.43956027 19 18 C19 18.66 19 19.32 19 20 C18.34773438 20.268125 17.69546875 20.53625 17.0234375 20.8125 C9.29759589 24.27659417 5.14734585 28.31488179 1.625 36 C1.41875 36.66 1.2125 37.32 1 38 C-1.75070359 36.6246482 -1.97558764 35.0460845 -3.1875 32.25 C-6.29600947 25.85012756 -9.88925708 23.18773821 -16.4375 20.6875 C-17.283125 20.460625 -18.12875 20.23375 -19 20 C-19 19.34 -19 18.68 -19 18 C-18.40832031 17.75765625 -17.81664062 17.5153125 -17.20703125 17.265625 C-7.83256427 13.28950524 -4.1594508 9.2746903 0 0 Z " fill="#F5C84B" transform="translate(483,285)"/>
<path d="M0 0 C0.66 0 1.32 0 2 0 C2.24234375 0.54269531 2.4846875 1.08539063 2.734375 1.64453125 C5.50669811 7.56237482 8.03818075 10.23201249 14 13 C14 13.66 14 14.32 14 15 C13.46890625 15.1959375 12.9378125 15.391875 12.390625 15.59375 C7.04092873 17.85858492 4.85858492 20.04092873 2.59375 25.390625 C2.3978125 25.92171875 2.201875 26.4528125 2 27 C1.34 27 0.68 27 0 27 C-0.1959375 26.46890625 -0.391875 25.9378125 -0.59375 25.390625 C-2.85858492 20.04092873 -5.04092873 17.85858492 -10.390625 15.59375 C-10.92171875 15.3978125 -11.4528125 15.201875 -12 15 C-11.67 14.01 -11.34 13.02 -11 12 C-10.071875 11.566875 -9.14375 11.13375 -8.1875 10.6875 C-3.55618629 8.23562803 -1.63191628 4.89574884 0 0 Z " fill="#F5C84C" transform="translate(12,153)"/>
<path d="M0 0 C2 3 2 3 1.8125 6.5 C1 10 1 10 -0.1875 11.9375 C-3.00547398 13.58941578 -4.79404815 13.5129523 -8 13 C-10.9375 10.9375 -10.9375 10.9375 -13 8 C-13.1875 4.375 -13.1875 4.375 -12 1 C-7.62335008 -2.35882436 -4.88474529 -2.44237265 0 0 Z " fill="#FC657D" transform="translate(193,427)"/>
<path d="M0 0 C1.59702542 3.19405084 1.50343003 6.53271429 1 10 C-1.18753283 12.6923481 -2.58423955 12.93936827 -6 13.4375 C-9 13 -9 13 -11.375 11.375 C-13.4753727 8.30522452 -13.53293835 6.65443439 -13 3 C-9.61832592 -2.95818766 -5.95148567 -2.09404125 0 0 Z " fill="#88D146" transform="translate(511,253)"/>
</svg>
